<svg xmlns="http://www.w3.org/2000/svg" viewBox="0 0 255.6 44.7" enable-background="new 0 0 255.6 44.7"><g fill="#262626"><path d="m62.6 0v36.2c0 0-.4 8.3 9.6 8.3 0 0 5.7-.5 5.7-1.7-.2-1.7-.5-3.4-.9-5.1-.9.5-2 .8-3 .8-1.3 0-4.2.6-4.2-2.9v-35.6h-7.2"/><path d="m83.2 13.2h7.7v31.2h-7.7z"/><ellipse cx="87.1" cy="4.6" rx="4.4" ry="4.4"/><path d="m114.8 12.4c-7 0-9.5 4.7-9.5 4.7v-17.1h-7.1v44.1h5.9c0 0 .2-4.1.8-4.4 0 0 2.8 4.4 9.5 4.4 5.2 0 14.6-2.5 14.6-15.2s-7.2-16.5-14.2-16.5m-2 26.3c-4.2 0-6.8-2.2-7.1-7.2v-5.4c.3-5 2.9-7.1 7.1-7.1 4.4 0 8 4.4 8 9.9s-3.5 9.8-8 9.8"/><path d="m153.5 14l-.9 5.1c-12.9-2.1-12.1 10-12.1 12.6v12.7h-6.9v-30.4h6.1v4.5c0 0 5.7-7.4 13.8-4.5"/><path d="m182 37.9c0-1.2.1-16.7.1-16.7s-.6-8.5-12.4-8.5c-10.5 0-13 3.1-13 3.1l2.6 4.3c0 0 13.6-5.2 15.9 2.2v3.7c-4.4-1-8.9-1-13.2 0-7.9 1.9-7.3 9.6-7.3 9.6s-.7 8.5 11.1 8.6c0 0 5.8 0 9.4-3.6.8 2.3 3 3.8 5.5 3.6h5.1v-5.5c0 0-3.8.4-3.8-.8m-13.8 1.3c-5.8 1.6-5.7-4.6-5.7-4.6.4-2.4 2.3-4.2 4.7-4.6 3-.5 7.4.9 7.4.9.3 2.9-.6 6.7-6.4 8.3"/><path d="m225.9 12.7c-8.5-.2-15.6 6.6-15.7 15.2 0 .2 0 .4 0 .6 0 8.7 7 15.7 15.7 15.7 8.7 0 15.7-7 15.7-15.7.2-8.5-6.6-15.6-15.2-15.8-.1 0-.3 0-.5 0m0 25.3c-4.9 0-8.1-4.3-8.1-9.5s3.1-9.5 8.1-9.5 8.1 4.3 8.1 9.5-3.1 9.5-8.1 9.5"/><path d="m207.3 19v-5.4h-8.5v-9h-7.2v8.9h-5.8v5.5h5.8v17.2c0 0-.4 8.3 9.5 8.3 0 0 5.7-.5 5.7-1.7-.2-1.7-.5-3.4-.9-5-.9.5-2 .8-3 .9-1.3 0-4.2.6-4.2-2.9v-16.8h8.6"/><circle cx="250.9" cy="40" r="4.7"/><path d="m26.3 20.9l.5-.1c3.5-1.1 7-2.3 10.4-3.8 3.4-1.4 6.7-3.2 9.6-5.5 3.1-2.5 5.4-5.8 6.7-9.5.3-.6.5-1.3.6-2-4.7 6.4-23.2 7-23.2 7l4.4-4c-12.6.1-25 4.1-35.3 11.5 7 .7 13.5 3.7 18.8 8.4 2.4-.8 5-1.3 7.5-2"/><path d="m55.3 20.3c-11.8-.6-23.5.9-34.8 4.4 2.4 2.5 4.3 5.3 5.8 8.3 9.4-5.2 22.3-11.8 29-12.7"/><path d="m27.6 35.7c1.1 2.8 1.8 5.8 2.1 8.8l16.2-16.7-18.3 7.9"/></g></svg>