<svg xmlns="http://www.w3.org/2000/svg" viewBox="0 0 241.91 44.54"><g data-name="Layer 1" fill="#fff"><path d="M62.87,0V36.23s-.37,8.31,9.59,8.31c0,0,5.72-.46,5.72-1.71a40,40,0,0,0-.88-5.07,7.94,7.94,0,0,1-3,.85c-1.33,0-4.21.64-4.21-2.88V0Z"/><path d="m83.46 13.17h7.72v31.22h-7.72z"/><ellipse cx="87.32" cy="4.59" rx="4.44" ry="4.44"/><path d="m115.08 12.44c-7 0-9.54 4.73-9.54 4.73v-17.17h-7.14v44.1h5.9s.21-4.08.79-4.44c0 0 2.77 4.44 9.46 4.44 5.17 0 14.56-2.48 14.56-15.17s-7.05-16.49-14.03-16.49m-2 26.27c-4.17 0-6.82-2.18-7.11-7.2v-5.38c.3-5 2.95-7.14 7.1-7.14 4.42 0 8 4.41 8 9.86s-3.54 9.86-7.96 9.86"/><path d="M153.72,14l-.87,5.12c-12.91-2.07-12.1,10-12.1,12.61V44.39h-6.87V14h6.06v4.45S145.65,11.11,153.72,14Z"/><path d="m182.24 37.91c0-1.2.11-16.7.11-16.7s-.65-8.52-12.45-8.52c-10.48 0-13 3.06-13 3.06l2.63 4.25s13.65-5.24 15.94 2.19v3.81a31 31 0 0 0 -13.21 0c-7.86 1.86-7.26 9.61-7.26 9.61s-.71 8.51 11.08 8.62c0 0 5.78 0 9.39-3.6a5.41 5.41 0 0 0 5.46 3.6h5.13v-5.52s-3.82.4-3.82-.8m-13.76 1.31c-5.78 1.61-5.67-4.59-5.67-4.59a5.66 5.66 0 0 1 4.69 -4.59c3-.55 7.42.86 7.42.86.22 2.94-.68 6.72-6.44 8.32"/><path d="M226.17 12.69a15.46 15.46 0 0 0 -15.74 15.78 15.74 15.74 0 1 0 31.48 0A15.47 15.47 0 0 0 226.17 12.69m0 25.33c-4.93 0-8.08-4.27-8.08-9.55s3.15-9.55 8.08-9.55 8.06 4.28 8.06 9.55S231.09 38 226.17 38"/><path d="M207.53,19V13.57H199V4.62h-7.2v8.95H186V19h5.81V36.18s-.37,8.28,9.54,8.28c0,0,5.7-.47,5.7-1.71a40.22,40.22,0,0,0-.87-5,7.93,7.93,0,0,1-3,.86c-1.32,0-4.19.63-4.19-2.86V19Z"/><path d="M26.33,20.89l.48-.13a91.62,91.62,0,0,0,10.42-3.82,38.51,38.51,0,0,0,9.59-5.46A20.83,20.83,0,0,0,53.54,2,8.55,8.55,0,0,0,54.15.05C49.49,6.42,31,7.08,31,7.08l4.36-4A61,61,0,0,0,0,14.54a33.31,33.31,0,0,1,18.75,8.38C21.25,22.14,23.81,21.58,26.33,20.89Z"/><path d="M55.31 20.27a101.79 101.79 0 0 0 -34.77 4.4A33.48 33.48 0 0 1 26.39 33C35.71 27.82 48.62 21.2 55.31 20.27"/><path d="M27.56 35.67a33.24 33.24 0 0 1 2.11 8.82L45.9 27.8"/></g></svg>